<svg width="21" height="21" viewBox="0 0 21 21" fill="none" xmlns="http://www.w3.org/2000/svg">
<path d="M10.9754 13.9388L17.9447 6.6242C18.0611 6.50216 18.126 6.34001 18.126 6.17139C18.126 6.00277 18.0611 5.84062 17.9447 5.71858L17.9369 5.7107C17.8804 5.65133 17.8126 5.60406 17.7373 5.57175C17.6621 5.53944 17.581 5.52279 17.4991 5.52279C17.4172 5.52279 17.3362 5.53944 17.261 5.57175C17.1857 5.60406 17.1178 5.65133 17.0614 5.7107L10.4989 12.5987L3.93904 5.7107C3.88264 5.65133 3.81474 5.60406 3.7395 5.57175C3.66425 5.53944 3.58321 5.52279 3.50132 5.52279C3.41943 5.52279 3.33839 5.53944 3.26314 5.57175C3.18789 5.60406 3.12 5.65133 3.0636 5.7107L3.05573 5.71858C2.93938 5.84062 2.87448 6.00277 2.87448 6.17139C2.87448 6.34001 2.93938 6.50216 3.05573 6.6242L10.0251 13.9388C10.0864 14.0031 10.1601 14.0543 10.2418 14.0893C10.3234 14.1243 10.4114 14.1423 10.5002 14.1423C10.5891 14.1423 10.677 14.1243 10.7587 14.0893C10.8403 14.0543 10.9141 14.0031 10.9754 13.9388Z" fill="black"/>
</svg>
