<svg width="37" height="34" viewBox="0 0 37 34" fill="none" xmlns="http://www.w3.org/2000/svg">
<mask id="mask0_146_41" style="mask-type:luminance" maskUnits="userSpaceOnUse" x="0" y="0" width="37" height="34">
<path d="M0 0H36.0863V34H0V0Z" fill="white"/>
</mask>
<g mask="url(#mask0_146_41)">
<path d="M35.7084 0.0339846C30.5934 2.82384 20.0135 11.5084 11.573 25.3229C11.2985 25.7719 10.7119 25.915 10.2612 25.6422L10.2573 25.6396C10.0249 25.4969 9.79693 25.3477 9.57415 25.1901C6.82302 23.2487 0.80733 19.8336 0.80733 19.8336C0.430969 19.6226 0.042425 19.9059 0.00805207 20.2535C-0.00369565 20.2761 -0.00282545 20.3135 0.00892227 20.364C0.0184944 20.4415 0.0467759 20.5198 0.0968124 20.5946C0.599353 21.6711 2.99153 24.9447 5.25361 27.9922C7.78285 31.4012 10.021 33.3383 10.3808 33.6407C10.3943 33.6524 10.4078 33.6637 10.4217 33.6746C10.4283 33.6802 10.4326 33.6837 10.4326 33.6837V33.6833C11.114 34.2289 12.166 34.0605 12.6168 33.2525C16.0537 27.0946 27.1779 7.85403 35.993 0.450375C36.2279 0.25284 35.9782 -0.113079 35.7084 0.0339846Z" fill="#FFB800"/>
</g>
</svg>
