<svg width="17" height="17" viewBox="0 0 17 17" fill="none" xmlns="http://www.w3.org/2000/svg">
<path d="M16.8218 0.0160099C14.4121 1.33029 9.42801 5.42154 5.45175 11.9294C5.32241 12.1409 5.04611 12.2084 4.83376 12.0799L4.83191 12.0786C4.72246 12.0114 4.61505 11.9411 4.51011 11.8669C3.21407 10.9523 0.380119 9.34348 0.380119 9.34348C0.202818 9.24407 0.019778 9.37751 0.00358521 9.54128C-0.00194906 9.55194 -0.00153912 9.56957 0.00399515 9.59334C0.00850452 9.62983 0.0218277 9.66673 0.0453996 9.70198C0.282143 10.2091 1.40908 11.7513 2.47473 13.1869C3.66624 14.7929 4.72061 15.7054 4.89013 15.8479C4.89648 15.8534 4.90283 15.8587 4.90939 15.8639C4.91247 15.8665 4.91452 15.8682 4.91452 15.8682V15.868C5.23551 16.125 5.73113 16.0457 5.94348 15.665C7.56256 12.7641 12.8031 3.69998 16.9558 0.212168C17.0665 0.119111 16.9489 -0.0532708 16.8218 0.0160099Z" fill="#FFB800"/>
</svg>
