<svg width="31" height="20" viewBox="0 0 31 20" fill="none" xmlns="http://www.w3.org/2000/svg">
<mask id="mask0_159_118" style="mask-type:luminance" maskUnits="userSpaceOnUse" x="1" y="11" width="29" height="9">
<path d="M1.62268 11.1847H29.3733V19.88H1.62268V11.1847Z" fill="white"/>
</mask>
<g mask="url(#mask0_159_118)">
<path d="M29.2888 19.52L19.5589 11.4408C19.2744 11.2049 18.8621 11.2049 18.5776 11.4408L15.9562 13.6174C15.6923 13.8364 15.3099 13.8364 15.0464 13.6174L12.425 11.4408C12.1405 11.2049 11.7282 11.2049 11.4438 11.4408L1.71348 19.52C1.57966 19.6314 1.65816 19.8489 1.83235 19.8489H29.1703C29.3441 19.8489 29.4226 19.6314 29.2888 19.52Z" fill="#170404"/>
</g>
<path d="M10.2282 9.617L0.304643 1.37743C0.183907 1.2765 0 1.36285 0 1.52022V18.359C0 18.5163 0.183907 18.6027 0.304643 18.5021L10.2282 10.2625C10.4304 10.0947 10.4304 9.78446 10.2282 9.617Z" fill="#170404"/>
<mask id="mask1_159_118" style="mask-type:luminance" maskUnits="userSpaceOnUse" x="1" y="0" width="29" height="12">
<path d="M1.62268 0H29.3733V11.6632H1.62268V0Z" fill="white"/>
</mask>
<g mask="url(#mask1_159_118)">
<path d="M1.71387 0.359587L15.129 11.4983C15.3451 11.6774 15.6579 11.6774 15.8736 11.4983L29.2888 0.359587C29.4226 0.248196 29.3441 0.0302734 29.1703 0.0302734H1.83237C1.65818 0.0302734 1.57968 0.248196 1.71387 0.359587Z" fill="#170404"/>
</g>
<mask id="mask2_159_118" style="mask-type:luminance" maskUnits="userSpaceOnUse" x="20" y="1" width="11" height="18">
<path d="M20.5696 1.32849H31V18.553H20.5696V1.32849Z" fill="white"/>
</mask>
<g mask="url(#mask2_159_118)">
<path d="M30.698 1.37746L20.7745 9.61703C20.5722 9.78449 20.5722 10.0947 20.7745 10.2626L30.698 18.5022C30.8191 18.6027 31.0023 18.5167 31.0023 18.3594V1.52025C31.0023 1.36288 30.8191 1.27653 30.698 1.37746Z" fill="#170404"/>
</g>
</svg>
