<svg width="51" height="51" viewBox="0 0 51 51" fill="none" xmlns="http://www.w3.org/2000/svg">
<g filter="url(#filter0_d_212_307)">
<path d="M36.4 43C34.14 43 31.76 42.46 29.3 41.42C26.9 40.4 24.48 39 22.12 37.3C19.78 35.58 17.52 33.66 15.38 31.56C13.26 29.42 11.34 27.16 9.64 24.84C7.92 22.44 6.54 20.04 5.56 17.72C4.52 15.24 4 12.84 4 10.58C4 9.02 4.28 7.54 4.82 6.16C5.38 4.74 6.28 3.42 7.5 2.28C9.04 0.76 10.8 0 12.68 0C13.46 0 14.26 0.18 14.94 0.5C15.72 0.86 16.38 1.4 16.86 2.12L21.5 8.66C21.92 9.24 22.24 9.8 22.46 10.36C22.72 10.96 22.86 11.56 22.86 12.14C22.86 12.9 22.64 13.64 22.22 14.34C21.92 14.88 21.46 15.46 20.88 16.04L19.52 17.46C19.54 17.52 19.56 17.56 19.58 17.6C19.82 18.02 20.3 18.74 21.22 19.82C22.2 20.94 23.12 21.96 24.04 22.9C25.22 24.06 26.2 24.98 27.12 25.74C28.26 26.7 29 27.18 29.44 27.4L30.86 26.06C31.48 25.44 32.08 24.98 32.66 24.68C33.76 24 35.16 23.88 36.56 24.46C37.08 24.68 37.64 24.98 38.24 25.4L44.88 30.12C45.62 30.62 46.16 31.26 46.48 32.02C46.78 32.78 46.92 33.48 46.92 34.18C46.92 35.14 46.7 36.1 46.28 37C45.86 37.9 45.34 38.68 44.68 39.4C43.54 40.66 42.3 41.56 40.86 42.14C39.48 42.7 37.98 43 36.4 43ZM12.68 3C11.58 3 10.56 3.48 9.58 4.44C8.66 5.3 8.02 6.24 7.62 7.26C7.2 8.3 7 9.4 7 10.58C7 12.44 7.44 14.46 8.32 16.54C9.22 18.66 10.48 20.86 12.08 23.06C13.68 25.26 15.5 27.4 17.5 29.42C19.5 31.4 21.66 33.24 23.88 34.86C26.04 36.44 28.26 37.72 30.46 38.64C33.88 40.1 37.08 40.44 39.72 39.34C40.74 38.92 41.64 38.28 42.46 37.36C42.92 36.86 43.28 36.32 43.58 35.68C43.82 35.18 43.94 34.66 43.94 34.14C43.94 33.82 43.88 33.5 43.72 33.14C43.66 33.02 43.54 32.8 43.16 32.54L36.52 27.82C36.12 27.54 35.76 27.34 35.42 27.2C34.98 27.02 34.8 26.84 34.12 27.26C33.72 27.46 33.36 27.76 32.96 28.16L31.44 29.66C30.66 30.42 29.46 30.6 28.54 30.26L28 30.02C27.18 29.58 26.22 28.9 25.16 28C24.2 27.18 23.16 26.22 21.9 24.98C20.92 23.98 19.94 22.92 18.92 21.74C17.98 20.64 17.3 19.7 16.88 18.92L16.64 18.32C16.52 17.86 16.48 17.6 16.48 17.32C16.48 16.6 16.74 15.96 17.24 15.46L18.74 13.9C19.14 13.5 19.44 13.12 19.64 12.78C19.8 12.52 19.86 12.3 19.86 12.1C19.86 11.94 19.8 11.7 19.7 11.46C19.56 11.14 19.34 10.78 19.06 10.4L14.42 3.84C14.22 3.56 13.98 3.36 13.68 3.22C13.36 3.08 13.02 3 12.68 3Z" fill="white"/>
<path d="M38.5 17C37.68 17 37 16.32 37 15.5C37 14.78 36.28 13.28 35.08 12C33.9 10.74 32.6 10 31.5 10C30.68 10 30 9.32 30 8.5C30 7.68 30.68 7 31.5 7C33.44 7 35.48 8.04 37.26 9.94C38.92 11.72 40 13.9 40 15.5C40 16.32 39.32 17 38.5 17Z" fill="white"/>
<path d="M45.5 17C44.68 17 44 16.32 44 15.5C44 8.6 38.4 3 31.5 3C30.68 3 30 2.32 30 1.5C30 0.68 30.68 0 31.5 0C40.04 0 47 6.96 47 15.5C47 16.32 46.32 17 45.5 17Z" fill="white"/>
</g>
<defs>
<filter id="filter0_d_212_307" x="0" y="0" width="51" height="51" filterUnits="userSpaceOnUse" color-interpolation-filters="sRGB">
<feFlood flood-opacity="0" result="BackgroundImageFix"/>
<feColorMatrix in="SourceAlpha" type="matrix" values="0 0 0 0 0 0 0 0 0 0 0 0 0 0 0 0 0 0 127 0" result="hardAlpha"/>
<feOffset dy="4"/>
<feGaussianBlur stdDeviation="2"/>
<feComposite in2="hardAlpha" operator="out"/>
<feColorMatrix type="matrix" values="0 0 0 0 0 0 0 0 0 0 0 0 0 0 0 0 0 0 0.25 0"/>
<feBlend mode="normal" in2="BackgroundImageFix" result="effect1_dropShadow_212_307"/>
<feBlend mode="normal" in="SourceGraphic" in2="effect1_dropShadow_212_307" result="shape"/>
</filter>
</defs>
</svg>
