<svg width="23" height="23" viewBox="0 0 23 23" fill="none" xmlns="http://www.w3.org/2000/svg">
<mask id="mask0_159_124" style="mask-type:luminance" maskUnits="userSpaceOnUse" x="0" y="0" width="23" height="23">
<path d="M0 0H23V23H0V0Z" fill="white"/>
</mask>
<g mask="url(#mask0_159_124)">
<path d="M11.498 -0.000274658C5.13211 -0.000274658 -0.00146484 5.1846 -0.00146484 11.4989C-0.00146484 17.8645 5.18368 22.9981 11.498 22.9981C17.8636 22.9981 22.9971 17.8132 22.9971 11.4989C22.9971 5.1846 17.8636 -0.000274658 11.498 -0.000274658ZM18.6336 17.0431C18.3256 18.07 16.9396 19.5588 15.656 19.5588L15.5534 19.5075C13.654 19.4046 11.036 17.608 8.62298 14.6817L7.75033 13.6036C5.33758 10.6775 4.05426 7.80282 4.36206 5.95465C4.56753 4.61975 6.51831 3.5419 7.64773 3.5419C8.21231 3.5419 8.41778 3.7984 8.46908 4.00387C9.08523 5.1333 9.90658 7.08407 9.90658 7.80282V7.90542C9.75241 8.2648 9.44433 8.46999 9.18783 8.62417C8.82846 8.82937 8.62298 8.98355 8.57168 9.34292C8.57168 9.44552 8.67456 10.0101 10.266 11.9609L10.9331 12.7822C12.5245 14.6817 13.0381 14.8872 13.1407 14.8872C13.5514 14.9385 13.7053 14.7843 14.0133 14.4765C14.2188 14.2197 14.4753 13.9629 14.8347 13.9116H14.9376C15.656 14.0658 17.4016 15.1952 18.4284 16.0679C18.5823 16.1192 18.8391 16.376 18.6336 17.0431Z" fill="black"/>
</g>
</svg>
