<svg width="19" height="26" viewBox="0 0 19 26" fill="none" xmlns="http://www.w3.org/2000/svg">
<mask id="mask0_159_100" style="mask-type:luminance" maskUnits="userSpaceOnUse" x="0" y="0" width="19" height="26">
<path d="M0 0H18.094V26H0V0Z" fill="white"/>
</mask>
<g mask="url(#mask0_159_100)">
<path fill-rule="evenodd" clip-rule="evenodd" d="M9.04702 0.00891113C14.0436 0.00891113 18.0944 4.06568 18.0944 9.06994C18.0944 10.8111 17.6037 12.4374 16.7537 13.8182C15.7339 15.5094 14.7145 17.2013 13.6947 18.8932C12.453 20.9145 11.4482 22.5507 10.2066 24.5721C9.11165 26.3547 9.03779 26.3986 7.93748 24.6068C6.70185 22.5953 5.6633 20.9044 4.42768 18.8932C3.41046 17.2204 2.39356 15.5477 1.37603 13.8752C0.504629 12.4823 0 10.8353 0 9.06994C0 4.06568 4.05072 0.00891113 9.04702 0.00891113ZM9.04702 4.55184C11.2871 4.55184 13.1032 6.37042 13.1032 8.61371C13.1032 10.8573 11.2871 12.6759 9.04702 12.6759C6.80692 12.6759 4.99121 10.8573 4.99121 8.61371C4.99121 6.37042 6.80723 4.55184 9.04702 4.55184Z" fill="#040404"/>
</g>
</svg>
