<svg width="39" height="39" viewBox="0 0 39 39" fill="none" xmlns="http://www.w3.org/2000/svg">
<path d="M4.35355 0.646446C4.15829 0.451183 3.84171 0.451183 3.64645 0.646446L0.464466 3.82843C0.269204 4.02369 0.269204 4.34027 0.464466 4.53553C0.659728 4.7308 0.976311 4.7308 1.17157 4.53553L4 1.70711L6.82843 4.53553C7.02369 4.7308 7.34027 4.7308 7.53553 4.53553C7.7308 4.34027 7.7308 4.02369 7.53553 3.82843L4.35355 0.646446ZM4.5 39L4.5 1H3.5L3.5 39H4.5Z" fill="black"/>
<path d="M38.3536 35.3536C38.5488 35.1583 38.5488 34.8417 38.3536 34.6464L35.1716 31.4645C34.9763 31.2692 34.6597 31.2692 34.4645 31.4645C34.2692 31.6597 34.2692 31.9763 34.4645 32.1716L37.2929 35L34.4645 37.8284C34.2692 38.0237 34.2692 38.3403 34.4645 38.5355C34.6597 38.7308 34.9763 38.7308 35.1716 38.5355L38.3536 35.3536ZM0 35.5H38V34.5H0L0 35.5Z" fill="black"/>
<mask id="mask0_2029_213" style="mask-type:luminance" maskUnits="userSpaceOnUse" x="8" y="3" width="27" height="28">
<path d="M8 3H35V30.9064H8V3Z" fill="white"/>
</mask>
<g mask="url(#mask0_2029_213)">
<path d="M34.7339 8.91364L21.684 3.06935C21.6254 3.0433 21.5642 3.03027 21.5 3.03027C21.4358 3.03027 21.3746 3.0433 21.316 3.06935L8.26608 8.91364C8.22667 8.93123 8.1902 8.95403 8.1573 8.98236C8.12441 9.0107 8.09607 9.04294 8.07263 9.07941C8.04885 9.11556 8.03094 9.15465 8.01856 9.19633C8.00619 9.23802 8 9.28036 8 9.32367V24.6081C8 24.6514 8.00619 24.6937 8.01856 24.7354C8.03094 24.7771 8.04885 24.8162 8.07263 24.8523C8.09607 24.8888 8.12441 24.921 8.1573 24.9494C8.1902 24.9774 8.22667 25.0005 8.26608 25.0181L21.316 30.8624C21.3746 30.8884 21.4358 30.9015 21.5 30.9015C21.5642 30.9015 21.6254 30.8884 21.684 30.8624L34.7339 25.0181C34.7733 25.0005 34.8098 24.9774 34.8427 24.9494C34.8756 24.921 34.9039 24.8888 34.9274 24.8523C34.9511 24.8162 34.9691 24.7771 34.9814 24.7354C34.9938 24.6937 35 24.6514 35 24.6081V9.32367C35 9.28036 34.9938 9.23802 34.9814 9.19633C34.9691 9.15465 34.9511 9.11556 34.9274 9.07941C34.9039 9.04294 34.8756 9.0107 34.8427 8.98236C34.8098 8.95403 34.7733 8.93123 34.7339 8.91364ZM21.0499 29.758L8.90017 24.3169V10.0486L21.0499 15.4897V29.758ZM21.5 14.7058L9.51538 9.33898L21.5 3.97246L33.4846 9.33898L21.5 14.7058ZM34.0998 24.3169L21.9501 29.758V15.4897L34.0998 10.0486V24.3169Z" fill="black"/>
</g>
</svg>
