<svg width="41" height="41" viewBox="0 0 41 41" fill="none" xmlns="http://www.w3.org/2000/svg">
<g filter="url(#filter0_d_276_1112)">
<rect x="4" y="4" width="33" height="33" rx="16.5" fill="#419FD9"/>
<rect x="4" y="4" width="33" height="33" rx="16.5" fill="url(#paint0_linear_276_1112)"/>
<path d="M11.4163 20.1363C16.2146 18.0018 19.4142 16.5946 21.0151 15.9148C25.5861 13.9736 26.5359 13.6364 27.155 13.6251C27.2911 13.6228 27.5956 13.6572 27.7928 13.8206C27.9593 13.9586 28.0051 14.1449 28.027 14.2757C28.049 14.4065 28.0763 14.7045 28.0546 14.9373C27.8069 17.5946 26.735 24.0433 26.1898 27.0196C25.959 28.2789 25.5047 28.7012 25.0649 28.7425C24.1091 28.8323 23.3833 28.0975 22.4575 27.4779C21.0088 26.5084 20.1905 25.9048 18.7843 24.9587C17.1592 23.8653 18.2127 23.2643 19.1388 22.2822C19.3812 22.0252 23.5926 18.1141 23.6741 17.7593C23.6843 17.7149 23.6938 17.5495 23.5975 17.4621C23.5013 17.3748 23.3592 17.4047 23.2567 17.4284C23.1114 17.4621 20.7972 19.0239 16.314 22.1137C15.6571 22.5743 15.0622 22.7987 14.5291 22.7869C13.9414 22.774 12.8109 22.4477 11.9705 22.1687C10.9397 21.8266 10.1205 21.6458 10.1918 21.0648C10.229 20.7621 10.6371 20.4526 11.4163 20.1363Z" fill="white"/>
</g>
<defs>
<filter id="filter0_d_276_1112" x="0" y="0" width="41" height="41" filterUnits="userSpaceOnUse" color-interpolation-filters="sRGB">
<feFlood flood-opacity="0" result="BackgroundImageFix"/>
<feColorMatrix in="SourceAlpha" type="matrix" values="0 0 0 0 0 0 0 0 0 0 0 0 0 0 0 0 0 0 127 0" result="hardAlpha"/>
<feOffset/>
<feGaussianBlur stdDeviation="2"/>
<feComposite in2="hardAlpha" operator="out"/>
<feColorMatrix type="matrix" values="0 0 0 0 0 0 0 0 0 0 0 0 0 0 0 0 0 0 0.25 0"/>
<feBlend mode="normal" in2="BackgroundImageFix" result="effect1_dropShadow_276_1112"/>
<feBlend mode="normal" in="SourceGraphic" in2="effect1_dropShadow_276_1112" result="shape"/>
</filter>
<linearGradient id="paint0_linear_276_1112" x1="20.5" y1="4" x2="20.5" y2="36.7551" gradientUnits="userSpaceOnUse">
<stop stop-color="#2AABEE"/>
<stop offset="1" stop-color="#229ED9"/>
</linearGradient>
</defs>
</svg>
