<svg width="43" height="43" viewBox="0 0 43 43" fill="none" xmlns="http://www.w3.org/2000/svg">
<g filter="url(#filter0_d_28_322)">
<path d="M21.5 38C30.6127 38 38 30.6127 38 21.5C38 12.3873 30.6127 5 21.5 5C12.3873 5 5 12.3873 5 21.5C5 30.6127 12.3873 38 21.5 38Z" fill="#25D366" stroke="white" stroke-width="2"/>
<path fill-rule="evenodd" clip-rule="evenodd" d="M22.0439 30.6799H22.0398C20.3978 30.6793 18.7843 30.2673 17.3512 29.4856L12.15 30.85L13.5419 25.7658C12.6833 24.2779 12.2315 22.59 12.2323 20.8608C12.2344 15.4512 16.6358 11.05 22.0438 11.05C24.6685 11.0511 27.1319 12.0729 28.9843 13.9275C30.8367 15.7819 31.8563 18.247 31.8552 20.8685C31.8531 26.2769 27.4534 30.6777 22.0439 30.6799ZM17.5922 27.7094L17.89 27.8862C19.142 28.6292 20.5773 29.0223 22.0406 29.0229H22.0439C26.5386 29.0229 30.1968 25.3645 30.1986 20.868C30.1995 18.689 29.3521 16.6401 27.8124 15.0987C26.2728 13.5572 24.2253 12.7079 22.0471 12.7072C17.5489 12.7072 13.8906 16.3651 13.8888 20.8614C13.8882 22.4023 14.3193 23.9029 15.1357 25.2013L15.3296 25.5098L14.5057 28.5191L17.5922 27.7094ZM26.6511 22.9809C26.822 23.0636 26.9375 23.1194 26.9868 23.2017C27.0481 23.3039 27.0481 23.7947 26.8439 24.3675C26.6395 24.9401 25.6601 25.4627 25.1891 25.5331C24.7667 25.5963 24.2322 25.6226 23.645 25.436C23.2889 25.323 22.8323 25.1721 22.2474 24.9195C19.9491 23.9272 18.396 21.6996 18.1024 21.2786C18.0819 21.2492 18.0675 21.2285 18.0595 21.2178L18.0575 21.2152C17.9278 21.0421 17.0584 19.8822 17.0584 18.6818C17.0584 17.5525 17.6131 16.9606 17.8685 16.6882C17.886 16.6695 17.9021 16.6524 17.9165 16.6366C18.1412 16.3912 18.4068 16.3298 18.5702 16.3298C18.7336 16.3298 18.8972 16.3313 19.0401 16.3385C19.0577 16.3394 19.076 16.3393 19.095 16.3392C19.2378 16.3383 19.4159 16.3373 19.5916 16.7593C19.6592 16.9218 19.7582 17.1626 19.8625 17.4165C20.0734 17.9301 20.3065 18.4975 20.3475 18.5796C20.4088 18.7024 20.4496 18.8455 20.3679 19.0092C20.3557 19.0337 20.3443 19.0569 20.3335 19.079C20.2721 19.2043 20.227 19.2965 20.1228 19.4181C20.0818 19.4659 20.0395 19.5175 19.9972 19.569C19.9128 19.6718 19.8285 19.7745 19.7551 19.8476C19.6323 19.9699 19.5046 20.1025 19.6476 20.3479C19.7906 20.5934 20.2826 21.3961 21.0114 22.0462C21.7948 22.745 22.4757 23.0403 22.8208 23.19C22.8882 23.2193 22.9428 23.243 22.9829 23.263C23.2279 23.3858 23.3709 23.3652 23.514 23.2017C23.657 23.038 24.1268 22.4858 24.2902 22.2404C24.4536 21.995 24.6171 22.0359 24.8418 22.1177C25.0665 22.1996 26.2718 22.7926 26.517 22.9153C26.5648 22.9393 26.6096 22.9609 26.6511 22.9809Z" fill="#FDFDFD"/>
</g>
<defs>
<filter id="filter0_d_28_322" x="0" y="0" width="43" height="43" filterUnits="userSpaceOnUse" color-interpolation-filters="sRGB">
<feFlood flood-opacity="0" result="BackgroundImageFix"/>
<feColorMatrix in="SourceAlpha" type="matrix" values="0 0 0 0 0 0 0 0 0 0 0 0 0 0 0 0 0 0 127 0" result="hardAlpha"/>
<feOffset/>
<feGaussianBlur stdDeviation="2"/>
<feComposite in2="hardAlpha" operator="out"/>
<feColorMatrix type="matrix" values="0 0 0 0 0 0 0 0 0 0 0 0 0 0 0 0 0 0 0.25 0"/>
<feBlend mode="normal" in2="BackgroundImageFix" result="effect1_dropShadow_28_322"/>
<feBlend mode="normal" in="SourceGraphic" in2="effect1_dropShadow_28_322" result="shape"/>
</filter>
</defs>
</svg>
