<svg width="41" height="41" viewBox="0 0 41 41" fill="none" xmlns="http://www.w3.org/2000/svg">
<g filter="url(#filter0_d_276_1115)">
<path d="M20.5 37C29.6127 37 37 29.6127 37 20.5C37 11.3873 29.6127 4 20.5 4C11.3873 4 4 11.3873 4 20.5C4 29.6127 11.3873 37 20.5 37Z" fill="#25D366"/>
<path fill-rule="evenodd" clip-rule="evenodd" d="M21.0439 29.6799H21.0398C19.3978 29.6793 17.7843 29.2673 16.3512 28.4856L11.15 29.85L12.5419 24.7658C11.6833 23.2779 11.2315 21.59 11.2323 19.8608C11.2344 14.4512 15.6358 10.05 21.0438 10.05C23.6685 10.0511 26.1319 11.0729 27.9843 12.9275C29.8367 14.7819 30.8563 17.247 30.8552 19.8685C30.8531 25.2769 26.4534 29.6777 21.0439 29.6799ZM16.5922 26.7094L16.89 26.8862C18.142 27.6292 19.5773 28.0223 21.0406 28.0229H21.0439C25.5386 28.0229 29.1968 24.3645 29.1986 19.868C29.1995 17.689 28.3521 15.6401 26.8124 14.0987C25.2728 12.5572 23.2253 11.7079 21.0471 11.7072C16.5489 11.7072 12.8906 15.3651 12.8888 19.8614C12.8882 21.4023 13.3193 22.9029 14.1357 24.2013L14.3296 24.5098L13.5057 27.5191L16.5922 26.7094ZM25.6511 21.9809C25.822 22.0636 25.9375 22.1194 25.9868 22.2017C26.0481 22.3039 26.0481 22.7947 25.8439 23.3675C25.6395 23.9401 24.6601 24.4627 24.1891 24.5331C23.7667 24.5963 23.2322 24.6226 22.645 24.436C22.2889 24.323 21.8323 24.1721 21.2474 23.9195C18.9491 22.9272 17.396 20.6996 17.1024 20.2786C17.0819 20.2492 17.0675 20.2285 17.0595 20.2178L17.0575 20.2152C16.9278 20.0421 16.0584 18.8822 16.0584 17.6818C16.0584 16.5525 16.6131 15.9606 16.8685 15.6882C16.886 15.6695 16.9021 15.6524 16.9165 15.6366C17.1412 15.3912 17.4068 15.3298 17.5702 15.3298C17.7336 15.3298 17.8972 15.3313 18.0401 15.3385C18.0577 15.3394 18.076 15.3393 18.095 15.3392C18.2378 15.3383 18.4159 15.3373 18.5916 15.7593C18.6592 15.9218 18.7582 16.1626 18.8625 16.4165C19.0734 16.9301 19.3065 17.4975 19.3475 17.5796C19.4088 17.7024 19.4496 17.8455 19.3679 18.0092C19.3557 18.0337 19.3443 18.0569 19.3335 18.079C19.2721 18.2043 19.227 18.2965 19.1228 18.4181C19.0818 18.4659 19.0395 18.5175 18.9972 18.569C18.9128 18.6718 18.8285 18.7745 18.7551 18.8476C18.6323 18.9699 18.5046 19.1025 18.6476 19.3479C18.7906 19.5934 19.2826 20.3961 20.0114 21.0462C20.7948 21.745 21.4757 22.0403 21.8208 22.19C21.8882 22.2193 21.9428 22.243 21.9829 22.263C22.2279 22.3858 22.3709 22.3652 22.514 22.2017C22.657 22.038 23.1268 21.4858 23.2902 21.2404C23.4536 20.995 23.6171 21.0359 23.8418 21.1177C24.0665 21.1996 25.2718 21.7926 25.517 21.9153C25.5648 21.9393 25.6096 21.9609 25.6511 21.9809Z" fill="#FDFDFD"/>
</g>
<defs>
<filter id="filter0_d_276_1115" x="0" y="0" width="41" height="41" filterUnits="userSpaceOnUse" color-interpolation-filters="sRGB">
<feFlood flood-opacity="0" result="BackgroundImageFix"/>
<feColorMatrix in="SourceAlpha" type="matrix" values="0 0 0 0 0 0 0 0 0 0 0 0 0 0 0 0 0 0 127 0" result="hardAlpha"/>
<feOffset/>
<feGaussianBlur stdDeviation="2"/>
<feComposite in2="hardAlpha" operator="out"/>
<feColorMatrix type="matrix" values="0 0 0 0 0 0 0 0 0 0 0 0 0 0 0 0 0 0 0.25 0"/>
<feBlend mode="normal" in2="BackgroundImageFix" result="effect1_dropShadow_276_1115"/>
<feBlend mode="normal" in="SourceGraphic" in2="effect1_dropShadow_276_1115" result="shape"/>
</filter>
</defs>
</svg>
