<svg width="45" height="29" viewBox="0 0 45 29" fill="none" xmlns="http://www.w3.org/2000/svg">
<path d="M11.056 14.6456C11.056 14.3272 10.7982 14.0684 10.4803 14.0684H4.35354C4.03509 14.0684 3.77734 14.3272 3.77734 14.6456C3.77734 14.9641 4.03509 15.2224 4.35354 15.2224H10.4803C10.7982 15.2224 11.056 14.9641 11.056 14.6456Z" fill="black"/>
<path d="M10.4803 4.93604H4.35354C4.03509 4.93604 3.77734 5.19484 3.77734 5.5133C3.77734 5.83175 4.03509 6.09003 4.35354 6.09003H10.4803C10.7982 6.09003 11.056 5.83175 11.056 5.5133C11.056 5.19484 10.7982 4.93604 10.4803 4.93604Z" fill="black"/>
<mask id="mask0_239_1114" style="mask-type:luminance" maskUnits="userSpaceOnUse" x="0" y="9" width="9" height="2">
<path d="M0 9.43219H8.85065V10.6591H0V9.43219Z" fill="white"/>
</mask>
<g mask="url(#mask0_239_1114)">
<path d="M0.576198 10.6559H8.16156C8.47948 10.6559 8.73722 10.3977 8.73722 10.0792C8.73722 9.76076 8.47948 9.50195 8.16156 9.50195H0.576198C0.257745 9.50195 0 9.76076 0 10.0792C0 10.3977 0.257745 10.6559 0.576198 10.6559Z" fill="black"/>
</g>
<path d="M37.703 23.7194C37.0549 23.7194 36.5293 24.2456 36.5293 24.8952C36.5293 25.5449 37.0549 26.0711 37.703 26.0711C38.3516 26.0711 38.8772 25.5449 38.8772 24.8952C38.8772 24.2456 38.3516 23.7194 37.703 23.7194Z" fill="black"/>
<path d="M15.7909 23.7194C15.1428 23.7194 14.6172 24.2456 14.6172 24.8952C14.6172 25.5449 15.1428 26.0711 15.7909 26.0711C16.4395 26.0711 16.9646 25.5449 16.9646 24.8952C16.9646 24.2456 16.4395 23.7194 15.7909 23.7194Z" fill="black"/>
<path d="M40.1114 16.844H33.5942V10.3146H35.8479L40.1114 14.5866V16.844ZM32.4424 9.16064V17.9975H41.2632V14.1089L36.3245 9.16064H32.4424Z" fill="black"/>
<mask id="mask1_239_1114" style="mask-type:luminance" maskUnits="userSpaceOnUse" x="9" y="0" width="36" height="29">
<path d="M9.27051 0H44.148V29H9.27051V0Z" fill="white"/>
</mask>
<g mask="url(#mask1_239_1114)">
<path d="M42.9963 23.7604C42.9963 24.0592 42.7535 24.3025 42.4558 24.3025H41.7528C41.4647 22.3199 39.7617 20.7905 37.7029 20.7905C35.6452 20.7905 33.9417 22.3199 33.653 24.3025H19.8408C19.5522 22.3199 17.8491 20.7905 15.7909 20.7905C13.7332 20.7905 12.0307 22.3189 11.7416 24.3015C11.0546 24.2956 10.4976 23.7349 10.4976 23.0452V19.9688H30.6884V7.42505H35.0115C36.3413 7.42505 37.5906 7.94374 38.531 8.88578L41.5388 11.8983C42.4787 12.8404 42.9963 14.0923 42.9963 15.4242V23.7604ZM37.7029 27.8465C36.0787 27.8465 34.757 26.5227 34.757 24.8952C34.757 23.2684 36.0787 21.9445 37.7029 21.9445C39.3277 21.9445 40.6489 23.2684 40.6489 24.8952C40.6489 26.5227 39.3277 27.8465 37.7029 27.8465ZM15.7909 27.8465C14.1667 27.8465 12.8455 26.5227 12.8455 24.8952C12.8455 23.2684 14.1667 21.9445 15.7909 21.9445C17.4146 21.9445 18.7363 23.2684 18.7363 24.8952C18.7363 26.5227 17.4146 27.8465 15.7909 27.8465ZM39.3458 8.06995C38.1881 6.9101 36.6485 6.27159 35.0115 6.27159H30.6884V1.82496C30.6884 0.818482 29.871 -0.000549316 28.8661 -0.000549316H11.167C10.1626 -0.000549316 9.3457 0.818482 9.3457 1.82496V3.4364C9.3457 3.75485 9.60292 4.01313 9.92137 4.01313C10.2398 4.01313 10.4976 3.75485 10.4976 3.4364V1.82496C10.4976 1.45486 10.7979 1.15344 11.167 1.15344H28.8661C29.2357 1.15344 29.5366 1.45486 29.5366 1.82496V18.8148H10.4976V17.0037C10.4976 16.6852 10.2398 16.4264 9.92137 16.4264C9.60292 16.4264 9.3457 16.6852 9.3457 17.0037V23.0452C9.3457 24.3696 10.4172 25.4459 11.7362 25.4549C12.01 27.4535 13.721 29 15.7909 29C17.8603 29 19.5713 27.4546 19.8456 25.4565H33.6483C33.923 27.4546 35.6341 29 37.7029 29C39.7724 29 41.4839 27.4546 41.7582 25.4565H42.4558C43.3893 25.4565 44.1487 24.6955 44.1487 23.7604V15.4242C44.1487 13.784 43.5107 12.2423 42.353 11.0825L39.3458 8.06995Z" fill="black"/>
</g>
</svg>
