<svg width="29" height="29" viewBox="0 0 29 29" fill="none" xmlns="http://www.w3.org/2000/svg">
<path d="M14.4989 22.9316C13.3607 22.9316 12.2578 22.7085 11.2178 22.2684C10.2132 21.8445 9.31242 21.2358 8.53831 20.4617C7.7642 19.6876 7.15729 18.7868 6.73158 17.7822C6.29153 16.7422 6.06836 15.6376 6.06836 14.5011C6.06836 13.3642 6.29153 12.2595 6.73158 11.2196C7.15554 10.2149 7.7642 9.31419 8.53831 8.54008C9.31242 7.76597 10.2132 7.15906 11.2178 6.73335C12.2578 6.2933 13.3624 6.07013 14.4989 6.07013C15.6358 6.07013 16.7405 6.2933 17.7804 6.73335C18.7851 7.15731 19.6858 7.76597 20.4599 8.54008C21.234 9.31419 21.8409 10.2149 22.2666 11.2196C22.7067 12.2595 22.9299 13.3642 22.9299 14.5011C22.9299 15.6376 22.7067 16.7422 22.2666 17.7822C21.8427 18.7868 21.234 19.6876 20.4599 20.4617C19.6858 21.2358 18.7851 21.8427 17.7804 22.2684C16.7405 22.7085 15.6375 22.9316 14.4989 22.9316ZM14.4989 7.50572C10.6427 7.50572 7.50395 10.6445 7.50395 14.5011C7.50395 18.3573 10.6427 21.4961 14.4989 21.4961C18.3555 21.4961 21.4943 18.3573 21.4943 14.5011C21.4943 10.6445 18.3555 7.50572 14.4989 7.50572Z" fill="black"/>
<path d="M13.0054 18.6353C12.8225 18.6353 12.6378 18.565 12.4972 18.4244L10.2626 16.1899C9.98277 15.91 9.98277 15.4546 10.2626 15.1747C10.5425 14.8949 10.9982 14.8949 11.2777 15.1747L13.0054 16.9024L18.0919 11.8159C18.3717 11.5365 18.8272 11.5365 19.107 11.8159C19.3869 12.0958 19.3869 12.5516 19.107 12.8311L13.5123 18.4244C13.3734 18.565 13.1884 18.6353 13.0054 18.6353Z" fill="black"/>
<mask id="mask0_243_1202" style="mask-type:luminance" maskUnits="userSpaceOnUse" x="0" y="0" width="29" height="29">
<path d="M0 0H29V29H0V0Z" fill="white"/>
</mask>
<g mask="url(#mask0_243_1202)">
<path d="M16.1598 28.9982H12.8384C12.5338 28.9982 12.263 28.8062 12.1609 28.5211L11.0523 25.4072L9.22288 24.6488L6.23697 26.0686C5.96273 26.1988 5.63531 26.1424 5.42088 25.928L3.07021 23.5773C2.85578 23.3629 2.79947 23.0355 2.92959 22.7613L4.34944 19.7753L3.59107 17.9459L0.47678 16.8374C0.190292 16.7352 0 16.4645 0 16.1598V12.8402C0 12.5355 0.192041 12.2647 0.47678 12.1626L3.59107 11.0544L4.34944 9.22461L2.92959 6.2387C2.79947 5.96445 2.85578 5.63704 3.07021 5.42261L5.42088 3.07194C5.63531 2.85751 5.96273 2.80119 6.23697 2.93132L9.22288 4.35117L11.0523 3.59279L12.1609 0.478856C12.263 0.192018 12.5338 0.0020752 12.8384 0.0020752H16.1616C16.4662 0.0020752 16.737 0.193767 16.8391 0.478856L17.9476 3.59279L19.7771 4.35117L22.763 2.93132C23.0373 2.80119 23.3647 2.85751 23.5791 3.07194L25.9298 5.42261C26.1442 5.63704 26.2005 5.96445 26.0704 6.2387L24.6506 9.22461L25.4089 11.0544L28.5229 12.1626C28.8097 12.2647 29 12.5355 29 12.8402V16.1636C29 16.468 28.808 16.7387 28.5229 16.8409L25.4089 17.9494L24.6506 19.7788L26.0704 22.7648C26.2005 23.039 26.1442 23.3664 25.9298 23.5808L23.5791 25.9315C23.3647 26.1463 23.0373 26.2023 22.763 26.0721L19.7771 24.6523L17.9476 25.4107L16.8391 28.5249C16.7352 28.8062 16.4645 28.9982 16.1598 28.9982ZM13.345 27.5623H15.655L16.7003 24.6243C16.7688 24.4326 16.9147 24.2794 17.1011 24.2021L19.5204 23.201C19.7086 23.1236 19.9198 23.1289 20.1028 23.2149L22.9194 24.554L24.5523 22.9211L23.2132 20.1045C23.1254 19.9216 23.1202 19.7085 23.1992 19.5221L24.2004 17.1029C24.2777 16.9147 24.4326 16.7688 24.6226 16.702L27.5606 15.6568V13.3467L24.6226 12.3018C24.4309 12.2329 24.2777 12.087 24.2004 11.9006L23.1992 9.48136C23.1219 9.29317 23.1272 9.08189 23.2132 8.89894L24.5523 6.08234L22.9194 4.44946L20.1028 5.7885C19.9198 5.8763 19.7068 5.88155 19.5204 5.80249L17.1011 4.80136C16.9129 4.72405 16.7671 4.57084 16.7003 4.37915L15.655 1.44116H13.345L12.2997 4.37915C12.2312 4.57084 12.0853 4.72405 11.8989 4.80136L9.47964 5.80249C9.29144 5.8798 9.08016 5.87455 8.89722 5.7885L6.08061 4.44946L4.44773 6.08234L5.78678 8.89894C5.87458 9.08189 5.87982 9.29492 5.80077 9.48136L4.79964 11.9006C4.72233 12.0888 4.56912 12.2347 4.37742 12.3018L1.43944 13.3467V15.6568L4.37742 16.702C4.56912 16.7705 4.72233 16.9164 4.79964 17.1029L5.80077 19.5221C5.87808 19.7103 5.87283 19.9216 5.78678 20.1045L4.44773 22.9211L6.08061 24.554L8.89722 23.2149C9.08016 23.1271 9.29319 23.1219 9.47964 23.201L11.8989 24.2021C12.0871 24.2794 12.2329 24.4344 12.2997 24.6243L13.345 27.5623Z" fill="black"/>
</g>
</svg>
