<svg width="29" height="19" viewBox="0 0 29 19" fill="none" xmlns="http://www.w3.org/2000/svg">
<mask id="mask0_244_1223" style="mask-type:luminance" maskUnits="userSpaceOnUse" x="0" y="0" width="29" height="19">
<path d="M0 0H29V18.7288H0V0Z" fill="white"/>
</mask>
<g mask="url(#mask0_244_1223)">
<path d="M28.9531 6.56334V4.69574H28.9489C28.95 4.66496 28.9475 4.63453 28.9423 4.60444C28.937 4.57401 28.9286 4.54463 28.9174 4.51594C28.9063 4.48761 28.8923 4.46033 28.8755 4.43479C28.8587 4.4089 28.8394 4.38512 28.8178 4.36343C28.7961 4.34139 28.7726 4.32215 28.7471 4.30501C28.7216 4.28787 28.6946 4.27388 28.6663 4.26234C28.6376 4.25079 28.6086 4.24205 28.5781 4.23645C28.5481 4.23086 28.5176 4.22841 28.4868 4.22911H25.4163L28.8167 0.824132C28.8492 0.7916 28.8765 0.754871 28.8982 0.713944C28.9199 0.673367 28.9353 0.630342 28.944 0.585217C28.9531 0.539743 28.9552 0.494269 28.951 0.448445C28.9465 0.402271 28.9353 0.358196 28.9178 0.31552C28.9 0.272844 28.8765 0.233666 28.8471 0.197986C28.8181 0.162306 28.7842 0.131524 28.746 0.105988C28.7076 0.0801028 28.6663 0.0608637 28.6222 0.0472214C28.5781 0.0339289 28.533 0.0272827 28.4868 0.0272827H7.97269C7.91078 0.0272827 7.85131 0.039176 7.79429 0.0626127C7.73728 0.0863993 7.6869 0.12033 7.64318 0.164055L0.183298 7.63373C0.150766 7.66626 0.123482 7.70299 0.101794 7.74392C0.0801062 7.7845 0.0647149 7.82752 0.0559699 7.87265C0.046875 7.91812 0.0447762 7.96359 0.0489738 8.00942C0.0535212 8.05559 0.0647149 8.09967 0.082205 8.14234C0.100045 8.18502 0.123482 8.2242 0.152865 8.25988C0.181899 8.29556 0.215829 8.32634 0.253958 8.35187C0.292436 8.37776 0.333713 8.397 0.377788 8.41064C0.421863 8.42393 0.466987 8.43058 0.513161 8.43058H3.58372L0.183298 11.8356C0.140272 11.8796 0.107041 11.93 0.0843038 11.9874C0.0612169 12.0444 0.050373 12.1039 0.0510726 12.1654H0.046875V14.033C0.046875 14.0638 0.0496734 14.0939 0.0556201 14.124C0.0615667 14.154 0.0706616 14.1834 0.082205 14.2118C0.0940982 14.2401 0.10844 14.267 0.125231 14.2922C0.142371 14.3178 0.16161 14.3415 0.183298 14.3632C0.204986 14.3849 0.228422 14.4042 0.253958 14.4213C0.279494 14.4381 0.306428 14.4524 0.334762 14.4643C0.362746 14.4762 0.39213 14.485 0.422213 14.4909C0.451946 14.4968 0.482379 14.5 0.513161 14.5H3.58372L0.183298 17.9046C0.150766 17.9372 0.123482 17.9739 0.101794 18.0148C0.0801062 18.0554 0.0647149 18.0984 0.0559699 18.1435C0.046875 18.189 0.0447762 18.2345 0.0489738 18.2807C0.0535212 18.3265 0.0647149 18.3709 0.082205 18.4132C0.100045 18.4559 0.123482 18.4951 0.152865 18.5308C0.181899 18.5664 0.215829 18.5972 0.253958 18.6228C0.292436 18.6487 0.333713 18.6682 0.377788 18.6815C0.421863 18.6948 0.466987 18.7015 0.513161 18.7015H21.0273C21.0892 18.7015 21.1487 18.6896 21.2057 18.6661C21.2627 18.6424 21.3131 18.6084 21.3568 18.5647L28.8167 11.095C28.8492 11.0625 28.8765 11.0258 28.8982 10.9852C28.9199 10.9443 28.9353 10.9012 28.944 10.8561C28.9531 10.8106 28.9552 10.7652 28.951 10.7193C28.9465 10.6732 28.9353 10.6291 28.9178 10.5864C28.9 10.5437 28.8765 10.5046 28.8471 10.4689C28.8181 10.4332 28.7842 10.4024 28.746 10.3769C28.7076 10.3513 28.6663 10.3318 28.6222 10.3181C28.5781 10.3048 28.533 10.2982 28.4868 10.2982H25.4163L28.8167 6.8932C28.8604 6.84947 28.894 6.7991 28.9178 6.74174C28.9412 6.68472 28.9531 6.62525 28.9531 6.56334ZM8.16578 0.960905H27.3615L20.8342 7.49696H1.63847L8.16578 0.960905ZM4.90213 8.43058H21.0273C21.0892 8.43058 21.1487 8.41869 21.2057 8.39525C21.2627 8.37146 21.3131 8.33753 21.3568 8.29381L24.4841 5.16273H27.3615L20.8342 11.6988H1.63847L4.90213 8.43058ZM0.979098 12.6324H20.561V13.566H0.979098V12.6324ZM27.3615 11.2318L20.8342 17.7678H1.63847L4.90213 14.5H21.0273C21.0892 14.5 21.1487 14.4881 21.2057 14.4643C21.2627 14.4405 21.3131 14.4069 21.3568 14.3632L24.4841 11.2318H27.3615ZM21.4936 12.9059V12.3589L28.0209 5.8228V6.3699L21.4936 12.9059Z" fill="#008A34"/>
</g>
</svg>
