<svg width="29" height="32" viewBox="0 0 29 32" fill="none" xmlns="http://www.w3.org/2000/svg">
<path d="M16.1731 23.852C15.9198 23.852 15.7148 23.647 15.7148 23.3941V23.0009C15.7148 22.7476 15.9198 22.5426 16.1731 22.5426C16.4263 22.5426 16.6317 22.7476 16.6317 23.0009V23.3941C16.6317 23.647 16.4263 23.852 16.1731 23.852Z" fill="#008A34"/>
<path d="M12.8248 23.852C12.5715 23.852 12.3662 23.647 12.3662 23.3941V23.0009C12.3662 22.7476 12.5715 22.5426 12.8248 22.5426C13.0781 22.5426 13.2834 22.7476 13.2834 23.0009V23.3941C13.2834 23.647 13.0781 23.852 12.8248 23.852Z" fill="#008A34"/>
<mask id="mask0_244_1232" style="mask-type:luminance" maskUnits="userSpaceOnUse" x="0" y="0" width="29" height="32">
<path d="M0 0H29V31.2821H0V0Z" fill="white"/>
</mask>
<g mask="url(#mask0_244_1232)">
<path d="M28.1064 27.9342V16.3207C28.1064 12.9885 26.7953 9.84693 24.4142 7.47457C22.0338 5.10256 18.8817 3.7964 15.5387 3.7964H13.4602C12.1508 3.7964 10.8716 3.99754 9.65571 4.38372V3.31333H9.67355C10.0604 3.31333 10.3752 2.9999 10.3752 2.61442V0.698905C10.3752 0.313772 10.0604 0 9.67355 0H2.92866C2.54178 0 2.22696 0.313772 2.22696 0.698905V2.61442C2.22696 2.9999 2.54178 3.31333 2.92866 3.31333H2.9465V9.47544C1.61026 11.4973 0.892462 13.8567 0.892462 16.3207V27.9342C0.398891 27.9688 0.0078125 28.3805 0.0078125 28.8825V30.3303C0.0078125 30.855 0.434921 31.2821 0.959974 31.2821H28.0371C28.5632 31.2821 28.991 30.855 28.991 30.3303V28.8825C28.991 28.3808 28.5999 27.9698 28.1064 27.9342ZM27.1895 16.3207V17.205H21.9999C21.8984 16.5201 21.5749 15.9062 21.1047 15.4389C21.1047 15.4385 21.1044 15.4385 21.1044 15.4385H27.156C27.178 15.7299 27.1895 16.0241 27.1895 16.3207ZM22.0331 25.2498V23.4833H27.1895V25.2498H22.0331ZM27.1895 26.1656V27.9307H22.0331V26.1656H27.1895ZM22.0331 22.5668V20.8017H27.1895V22.5668H22.0331ZM22.0331 19.8859V18.1208H27.1895V19.8859H22.0331ZM18.66 16.6457H10.3389C9.60708 16.6457 9.01172 17.2397 9.01172 17.9697V27.9307H7.88326V17.6633C7.88326 17.5062 7.8997 17.353 7.93083 17.205C8.14281 16.1976 9.0418 15.4389 10.115 15.4389H18.8821C19.9563 15.4389 20.8553 16.1976 21.068 17.205C21.0991 17.353 21.1156 17.5062 21.1156 17.6633V27.9307H19.9871V17.9697C19.9871 17.2397 19.3918 16.6457 18.66 16.6457ZM19.0703 17.9697V27.9307H14.958V17.5618H18.66C18.8863 17.5618 19.0703 17.7448 19.0703 17.9697ZM14.0408 17.5618V27.9307H9.92855V17.9697C9.92855 17.7448 10.1125 17.5618 10.3389 17.5618H14.0408ZM2.37143 12.7573H26.6274C26.8125 13.3278 26.9545 13.9172 27.0496 14.5224H1.94921C2.04436 13.9172 2.18638 13.3278 2.37143 12.7573ZM24.7007 9.15852H4.29814C4.8085 8.51139 5.38672 7.91987 6.02161 7.39377H22.9772C23.6121 7.91987 24.1903 8.51139 24.7007 9.15852ZM3.86333 8.25603V3.31333H8.73887V4.71498C7.20534 5.33833 5.79494 6.26846 4.58462 7.47457C4.33172 7.72643 4.09175 7.98738 3.86333 8.25603ZM13.4602 4.71253H15.5387C17.8026 4.71253 19.9179 5.35967 21.7081 6.47764H7.29069C9.08098 5.35967 11.1962 4.71253 13.4602 4.71253ZM3.14414 0.916482H9.45807V2.39719H3.14414V0.916482ZM3.64471 10.0747H25.3541C25.7134 10.6329 26.025 11.2238 26.2853 11.8412H2.71353C2.97379 11.2238 3.28546 10.6329 3.64471 10.0747ZM1.80929 16.3207C1.80929 16.0241 1.82084 15.7299 1.84287 15.4385H7.89375C7.89375 15.4385 7.89375 15.4385 7.8934 15.4385C7.42327 15.9062 7.0997 16.5201 6.99966 17.205H1.80929V16.3207ZM1.80929 18.1208H6.96573V19.8859H1.80929V18.1208ZM1.80929 20.8017H6.96573V22.5668H1.80929V20.8017ZM1.80929 23.4833H6.96573V25.2498H1.80929V23.4833ZM1.80929 26.1656H6.96573V27.9307H1.80929V26.1656ZM28.0742 30.3303C28.0742 30.3492 28.0567 30.3656 28.0371 30.3656H0.959974C0.941434 30.3656 0.924644 30.3488 0.924644 30.3303V28.8825C0.924644 28.8639 0.941434 28.8468 0.959974 28.8468H28.0371C28.0567 28.8468 28.0742 28.8636 28.0742 28.8825V30.3303Z" fill="#008A34"/>
</g>
</svg>
