<svg width="29" height="29" viewBox="0 0 29 29" fill="none" xmlns="http://www.w3.org/2000/svg">
<mask id="mask0_239_1096" style="mask-type:luminance" maskUnits="userSpaceOnUse" x="0" y="0" width="29" height="29">
<path d="M0 0H29V29H0V0Z" fill="white"/>
</mask>
<g mask="url(#mask0_239_1096)">
<path fill-rule="evenodd" clip-rule="evenodd" d="M29 5.22849C29 2.34088 26.6591 0 23.7715 0C18.685 0 10.315 0 5.22849 0C2.34088 0 0 2.34088 0 5.22849C0 10.315 0 18.685 0 23.7715C0 26.6591 2.34088 29 5.22849 29C10.315 29 18.685 29 23.7715 29C26.6591 29 29 26.6591 29 23.7715V5.22849ZM27.2422 5.22849V23.7715C27.2422 25.6888 25.6888 27.2422 23.7715 27.2422H5.22849C3.31123 27.2422 1.75776 25.6888 1.75776 23.7715V5.22849C1.75776 3.31158 3.31123 1.75776 5.22849 1.75776H23.7715C25.6888 1.75776 27.2422 3.31158 27.2422 5.22849ZM7.25 18.8939C5.67414 18.8939 4.39421 20.1738 4.39421 21.75C4.39421 23.3259 5.67414 24.6058 7.25 24.6058C8.82621 24.6058 10.1061 23.3259 10.1061 21.75C10.1061 20.1738 8.82621 18.8939 7.25 18.8939ZM7.25 20.6516C7.85656 20.6516 8.34873 21.1434 8.34873 21.75C8.34873 22.3562 7.85656 22.8484 7.25 22.8484C6.64379 22.8484 6.15162 22.3562 6.15162 21.75C6.15162 21.1434 6.64379 20.6516 7.25 20.6516ZM12.7426 22.6287H23.7271C24.2123 22.6287 24.6058 22.2352 24.6058 21.75C24.6058 21.2648 24.2123 20.8713 23.7271 20.8713H12.7426C12.2574 20.8713 11.8635 21.2648 11.8635 21.75C11.8635 22.2352 12.2574 22.6287 12.7426 22.6287ZM7.25 11.6439C5.67414 11.6439 4.39421 12.9238 4.39421 14.5C4.39421 16.0762 5.67414 17.3561 7.25 17.3561C8.82621 17.3561 10.1061 16.0762 10.1061 14.5C10.1061 12.9238 8.82621 11.6439 7.25 11.6439ZM7.25 13.4016C7.85656 13.4016 8.34873 13.8938 8.34873 14.5C8.34873 15.1062 7.85656 15.5984 7.25 15.5984C6.64379 15.5984 6.15162 15.1062 6.15162 14.5C6.15162 13.8938 6.64379 13.4016 7.25 13.4016ZM12.7426 15.3787H23.7271C24.2123 15.3787 24.6058 14.9852 24.6058 14.5C24.6058 14.0148 24.2123 13.6213 23.7271 13.6213H12.7426C12.2574 13.6213 11.8635 14.0148 11.8635 14.5C11.8635 14.9852 12.2574 15.3787 12.7426 15.3787ZM7.25 4.39421C5.67414 4.39421 4.39421 5.67414 4.39421 7.25C4.39421 8.82621 5.67414 10.1061 7.25 10.1061C8.82621 10.1061 10.1061 8.82621 10.1061 7.25C10.1061 5.67414 8.82621 4.39421 7.25 4.39421ZM7.25 6.15162C7.85656 6.15162 8.34873 6.64379 8.34873 7.25C8.34873 7.85656 7.85656 8.34873 7.25 8.34873C6.64379 8.34873 6.15162 7.85656 6.15162 7.25C6.15162 6.64379 6.64379 6.15162 7.25 6.15162ZM12.7426 8.1287H23.7271C24.2123 8.1287 24.6058 7.73518 24.6058 7.25C24.6058 6.76517 24.2123 6.3713 23.7271 6.3713H12.7426C12.2574 6.3713 11.8635 6.76517 11.8635 7.25C11.8635 7.73518 12.2574 8.1287 12.7426 8.1287Z" fill="black"/>
</g>
</svg>
