<svg width="36" height="29" viewBox="0 0 36 29" fill="none" xmlns="http://www.w3.org/2000/svg">
<mask id="mask0_242_1148" style="mask-type:luminance" maskUnits="userSpaceOnUse" x="0" y="0" width="36" height="26">
<path d="M0 0H35.7946V25.6603H0V0Z" fill="white"/>
</mask>
<g mask="url(#mask0_242_1148)">
<path fill-rule="evenodd" clip-rule="evenodd" d="M0 2.56549C0 1.15321 1.14503 0.00817871 2.55688 0.00817871H33.2377C34.6496 0.00817871 35.7946 1.15321 35.7946 2.56549V9.38513H34.09V2.56549C34.09 2.09487 33.7083 1.7132 33.2377 1.7132H2.55688C2.08626 1.7132 1.70459 2.09487 1.70459 2.56549V23.0249C1.70459 23.4955 2.08626 23.8771 2.55688 23.8771H14.4881V25.5822H2.55688C1.14503 25.5822 0 24.4371 0 23.0249V2.56549Z" fill="black"/>
</g>
<path fill-rule="evenodd" clip-rule="evenodd" d="M0.852539 5.97552H34.9426V7.68011H0.852539V5.97552Z" fill="black"/>
<path fill-rule="evenodd" clip-rule="evenodd" d="M5.11328 17.9099H13.6358V19.6149H5.11328V17.9099Z" fill="black"/>
<mask id="mask1_242_1148" style="mask-type:luminance" maskUnits="userSpaceOnUse" x="17" y="10" width="19" height="19">
<path d="M17.0137 10.1862H35.7952V29.0001H17.0137V10.1862Z" fill="white"/>
</mask>
<g mask="url(#mask1_242_1148)">
<path fill-rule="evenodd" clip-rule="evenodd" d="M26.4197 11.9425C22.1833 11.9425 18.7495 15.3776 18.7495 19.6149C18.7495 23.8522 22.1833 27.2872 26.4197 27.2872C30.6557 27.2872 34.0899 23.8522 34.0899 19.6149C34.0899 15.3776 30.6557 11.9425 26.4197 11.9425ZM17.0449 19.6149C17.0449 14.4359 21.2421 10.2379 26.4197 10.2379C31.5974 10.2379 35.7945 14.4359 35.7945 19.6149C35.7945 24.7938 31.5974 28.9923 26.4197 28.9923C21.2421 28.9923 17.0449 24.7938 17.0449 19.6149Z" fill="black"/>
</g>
<path fill-rule="evenodd" clip-rule="evenodd" d="M25.8071 21.3928L29.5613 16.1357L30.9481 17.1266L26.687 23.094C26.5536 23.2809 26.3507 23.4057 26.124 23.4411C25.8969 23.4761 25.6659 23.4182 25.482 23.2805L22.0732 20.7232L23.0956 19.3593L25.8071 21.3928Z" fill="black"/>
</svg>
