<svg width="29" height="29" viewBox="0 0 29 29" fill="none" xmlns="http://www.w3.org/2000/svg">
<mask id="mask0_244_1211" style="mask-type:luminance" maskUnits="userSpaceOnUse" x="0" y="0" width="29" height="29">
<path d="M0 0H29V29H0V0Z" fill="white"/>
</mask>
<g mask="url(#mask0_244_1211)">
<path d="M28.2624 0.738694C26.416 -1.10731 23.7358 1.07499 21.3574 3.4534C20.1833 4.6279 19.1032 5.86087 18.2341 7.01975C17.2637 8.31446 15.5005 8.75644 14.0417 8.07077L13.3375 7.73956C12.3369 7.26925 11.1392 7.4788 10.3577 8.26071L9.62115 8.99686L6.70669 11.9113C6.57813 12.0402 6.51349 12.208 6.51167 12.3765L2.80913 16.0791C2.79824 16.0831 2.78843 16.09 2.77754 16.0947L2.54075 16.3318C2.53567 16.3424 2.52913 16.3522 2.52477 16.3634L0.179769 18.7084C-0.00653773 18.8951 -0.00653773 19.1973 0.179769 19.3836L2.50443 21.7082C2.59414 21.7979 2.71544 21.8481 2.84218 21.8481H3.48935L3.51006 22.5301C3.51369 22.6518 3.56381 22.7672 3.64951 22.8533L7.08476 26.2886C7.21259 26.416 7.40181 26.4611 7.57322 26.4037L8.51529 26.0899L8.18735 27.004C8.12488 27.178 8.16882 27.3723 8.2992 27.503L9.61788 28.8213C9.80419 29.008 10.1067 29.008 10.293 28.8213L16.6246 22.4898C16.7934 22.488 16.9612 22.4233 17.0898 22.2948L20.7407 18.6438C21.5227 17.8619 21.7318 16.6645 21.2615 15.664L20.9303 14.9591C20.2447 13.5006 20.6866 11.7374 21.9817 10.7666C23.1406 9.89789 24.3736 8.81781 25.5481 7.64368C27.9261 5.26527 30.1084 2.58506 28.2624 0.738694ZM13.94 23.8237C13.9004 23.5477 13.8176 23.284 13.6894 23.0338C12.8955 21.4838 10.5353 20.7545 8.25235 20.0496C5.23621 19.1181 3.25039 18.3816 3.40764 16.8308L7.04408 13.1944L15.8067 21.957L13.94 23.8237ZM16.6169 20.8766L8.12452 12.3842L10.2291 10.2799L18.7211 18.772L16.6169 20.8766ZM24.6024 6.69834C23.4722 7.82853 22.2882 8.86575 21.1795 9.69705C19.3796 11.0462 18.7662 13.4984 19.7202 15.5278L20.0514 16.2327C20.2828 16.7244 20.18 17.3139 19.7954 17.6985L19.3966 18.0969L10.9042 9.60444L11.3026 9.20605C11.6872 8.82145 12.2767 8.71831 12.7688 8.95001L13.4729 9.28086C15.5024 10.2353 17.9549 9.62151 19.3037 7.822C20.1353 6.71287 21.1722 5.52929 22.3024 4.3991C26.1669 0.534591 27.0022 1.36952 27.3167 1.68403C27.6312 1.9989 28.4669 2.83383 24.6024 6.69834Z" fill="#008A34"/>
</g>
</svg>
