<svg width="29" height="30" viewBox="0 0 29 30" fill="none" xmlns="http://www.w3.org/2000/svg">
<mask id="mask0_244_1217" style="mask-type:luminance" maskUnits="userSpaceOnUse" x="0" y="0" width="29" height="30">
<path d="M0 0H29V29.2826H0V0Z" fill="white"/>
</mask>
<g mask="url(#mask0_244_1217)">
<path d="M19.1489 26.6399C18.2317 27.9723 16.6541 29.2284 14.4804 29.135C12.2833 29.0416 10.8341 27.9314 9.75913 26.6399C8.63137 27.9548 7.04187 29.3862 4.64048 29.2459C2.58364 29.1231 1.33905 28.0132 0.415569 26.6693C0.269701 26.459 0.123484 26.2603 0.0825573 26.0323C0.000703547 25.5649 0.0650672 24.9748 0.0650672 24.4256C0.0650672 16.625 0.0650672 8.97102 0.0650672 1.13546C0.0650672 0.556883 0.0241404 0.130474 0.491826 0.0545667C0.754527 0.0136398 1.076 0.0545667 1.37997 0.0545667C10.209 0.0545667 18.9212 0.0545667 27.7736 0.0545667C28.3109 0.0545667 28.6967 -0.0153938 28.8545 0.340705C28.9773 0.621246 28.9014 1.41005 28.9014 1.91272C28.9014 5.64615 28.9304 9.43836 28.9304 13.0843C28.9304 16.3155 28.9479 19.4826 28.9479 22.7312C28.9479 23.8061 29.0007 24.893 28.9479 25.9389C28.9363 26.1551 28.7202 26.4646 28.5799 26.6693C27.7152 27.9604 26.3244 29.17 24.3553 29.2284C23.1163 29.2634 22.1288 28.8839 21.2701 28.4046C20.4344 27.9314 19.7974 27.3119 19.1489 26.6399ZM1.07005 1.11202C1.07005 3.68306 1.07005 6.16036 1.07005 8.73736C1.07005 9.09345 1.00604 9.52616 1.07005 9.83574C1.09943 9.9816 1.28063 10.1978 1.38557 10.3615C2.13939 11.5067 3.2731 12.6111 4.97909 12.681C6.04284 12.722 6.89006 12.3655 7.58546 11.9041C8.0528 11.5945 8.52014 11.1562 8.90597 10.6945C9.01685 10.5661 9.23898 10.3499 9.27396 10.2037C9.34427 9.88821 9.27396 9.44431 9.27396 9.05847C9.27396 6.37094 9.27396 3.64808 9.27396 1.06549C6.54515 1.06549 3.81635 1.06549 1.09349 1.06549C1.06445 1.06549 1.06445 1.08858 1.07005 1.11202ZM10.2674 1.11202C10.2674 3.74148 10.2674 6.40592 10.2674 9.05847C10.2674 9.43241 10.1971 9.88821 10.2674 10.2037C10.2964 10.3206 10.4895 10.5602 10.6004 10.6945C11.4476 11.7404 12.7038 12.646 14.3986 12.7279C16.2392 12.8157 17.5188 11.8223 18.2726 10.7414C18.3776 10.5896 18.5588 10.379 18.5881 10.2156C18.6522 9.88226 18.5881 9.4499 18.5881 9.07037C18.5881 6.34156 18.5881 3.75303 18.5881 1.06549C15.8184 1.06549 13.0487 1.06549 10.2789 1.06549C10.2674 1.06549 10.2674 1.08858 10.2674 1.11202ZM19.5931 1.11202C19.5931 3.73553 19.5931 6.39403 19.5931 9.04098C19.5931 9.36245 19.5228 9.91164 19.5931 10.1862C19.6222 10.309 19.8677 10.5311 19.973 10.648C20.8961 11.6355 22.1113 12.6111 23.8467 12.6635C24.9161 12.6989 25.7517 12.2896 26.3712 11.8223C27.0373 11.3199 27.5046 10.6945 27.9139 9.9935C27.9254 6.97855 27.8904 4.04546 27.896 1.06549C25.1322 1.06549 22.3685 1.06549 19.6047 1.06549C19.5756 1.07109 19.5756 1.08858 19.5931 1.11202ZM5.10187 13.6804C3.23812 13.6629 2.03445 12.6579 1.08194 11.647C1.08194 11.6295 1.05851 11.6355 1.06445 11.6645C1.06445 13.3708 1.06445 15.1821 1.06445 16.9056C1.06445 17.1686 1.02353 17.4548 1.06445 17.671C1.09943 17.8287 1.27468 18.0393 1.37997 18.1971C2.1338 19.3248 3.25561 20.4757 4.98503 20.5166C6.81975 20.5575 8.01187 19.5641 8.89407 18.5301C9.00531 18.3957 9.22149 18.1911 9.26242 18.0393C9.30894 17.8406 9.26242 17.5485 9.26242 17.2914C9.26242 15.4333 9.26242 13.5986 9.26242 11.7932C8.24554 12.7338 7.06531 13.6979 5.10187 13.6804ZM27.8436 11.8163C26.932 12.7629 25.6349 13.7329 23.7768 13.6454C21.8602 13.5517 20.6565 12.6404 19.6166 11.6939C19.6166 11.676 19.5987 11.682 19.5987 11.7114C19.5987 12.2077 19.5987 12.7398 19.5987 13.283C19.5987 14.5976 19.5987 15.9181 19.5987 17.2561C19.5987 17.5251 19.5522 17.8462 19.5987 18.0218C19.6341 18.1502 19.8677 18.3604 19.9786 18.4832C20.8727 19.4532 22.1642 20.4932 23.8876 20.4991C26.0379 20.5106 27.16 19.1142 27.937 17.7647C27.9314 15.8306 27.9544 13.7329 27.9195 11.7754C27.8785 11.7289 27.8551 11.8048 27.8436 11.8163ZM18.4185 12.1203C17.5303 13.0084 16.122 13.8032 14.4451 13.7269C12.5988 13.6395 11.2839 12.7982 10.2849 11.8338C10.2849 11.8163 10.2615 11.8223 10.2674 11.8516C10.2674 13.9141 10.2674 15.9825 10.2674 18.0449C11.1671 19.2839 12.3592 20.4816 14.4276 20.5575C16.2623 20.6219 17.5188 19.6634 18.2726 18.571C18.3835 18.4073 18.5588 18.2086 18.5881 18.0449C18.6291 17.8287 18.5881 17.5485 18.5881 17.297C18.5881 15.5151 18.5881 13.7388 18.5881 11.9916C18.5472 11.9741 18.4654 12.0734 18.4185 12.1203ZM9.18651 19.6988C8.23959 20.575 6.9016 21.58 5.13685 21.51C3.26716 21.4341 2.046 20.5635 1.08754 19.4766C1.08754 19.4591 1.06445 19.4647 1.07005 19.4941C1.07005 21.282 1.07005 23.2045 1.07005 25.0098C1.07005 25.2844 1.02353 25.5884 1.07005 25.8046C1.09943 25.9564 1.28063 26.1666 1.38557 26.3128C2.16878 27.3881 3.40743 28.4281 5.24809 28.2528C6.93098 28.0951 8.05875 27.1251 8.91751 26.0907C9.04029 25.9448 9.23898 25.7461 9.26801 25.5999C9.30894 25.3897 9.26801 25.1151 9.26801 24.8695C9.26801 23.1107 9.26801 21.3754 9.26801 19.6578C9.22709 19.611 9.204 19.6869 9.18651 19.6988ZM27.8729 19.6169C26.9495 20.575 25.6699 21.5566 23.8058 21.4925C21.9361 21.4282 20.6681 20.4757 19.6106 19.541C19.6106 19.5232 19.5931 19.5291 19.5931 19.5585C19.5931 21.2354 19.5931 23.1051 19.5931 24.8346C19.5931 25.0976 19.5462 25.4072 19.5931 25.5999C19.6222 25.7286 19.8558 25.9329 19.9727 26.0617C20.3875 26.5115 20.8612 26.9379 21.3051 27.2534C21.9711 27.7211 22.7599 28.1181 23.7064 28.2234C25.6174 28.4337 26.8854 27.3703 27.6333 26.2838C27.7383 26.1316 27.9195 25.9214 27.9488 25.7577C27.9898 25.53 27.9488 25.2494 27.9488 24.9923C27.9488 23.1461 27.9488 21.3988 27.9488 19.576C27.9079 19.5291 27.8845 19.611 27.8729 19.6169ZM18.4185 19.9559C17.5422 20.8321 16.1923 21.6444 14.3986 21.5625C12.546 21.4806 11.2724 20.61 10.2849 19.6694C10.2849 19.6519 10.2615 19.6578 10.2674 19.6869C10.2674 21.6678 10.2674 23.6484 10.2674 25.6293C11.179 26.8854 12.3708 28.0541 14.4276 28.1416C16.5313 28.2294 17.8109 26.9673 18.5881 25.6643C18.5881 23.7187 18.5881 21.7787 18.5881 19.8331C18.5472 19.8037 18.4654 19.909 18.4185 19.9559ZM26.0788 2.66619C26.0788 3.67712 26.0788 4.83986 26.0788 5.80986C26.0788 6.23627 26.0263 6.8089 26.1432 7.01948C26.3184 7.3406 26.8795 7.30562 27.0313 7.01948C27.0957 6.8967 27.0782 6.64554 27.0782 6.39998C27.0782 5.26067 27.0782 4.39001 27.0782 3.30318C27.0782 2.94113 27.1426 2.32758 27.0488 2.09391C26.967 1.90082 26.7043 1.81897 26.5231 1.83681C26.0966 1.88928 26.0788 2.2048 26.0788 2.66619ZM26.0788 8.69048C26.0788 9.07596 26.0379 9.56114 26.1432 9.75388C26.3244 10.0928 26.9495 10.0519 27.0663 9.68952C27.1247 9.50832 27.0841 8.94164 27.0841 8.6555C27.0841 8.37496 27.1366 7.83732 27.0548 7.63863C26.9788 7.45743 26.7452 7.36403 26.529 7.38747C25.9504 7.45183 26.0788 8.01257 26.0788 8.69048Z" fill="#008A34"/>
</g>
</svg>
